<svg width="83" height="40" viewBox="0 0 83 40" fill="none" xmlns="http://www.w3.org/2000/svg">
<g clip-path="url(#clip0)">
<path d="M50.9031 31.14C46.1831 34.6233 39.3431 36.4733 33.4497 36.4733C25.578 36.5116 17.9758 33.6086 12.1331 28.3333C11.6931 27.9333 12.0864 27.3866 12.6164 27.6966C19.1115 31.4141 26.4661 33.3676 33.9497 33.3633C39.5398 33.3359 45.0693 32.2031 50.2197 30.03C51.0164 29.6966 51.6864 30.5566 50.9064 31.1333" fill="#6D7D93" fill-opacity="0.5"/>
<path d="M52.8664 28.9C53.4697 29.6733 52.1997 32.8567 51.6264 34.28C51.4531 34.71 51.8231 34.8833 52.2131 34.5567C54.7431 32.44 55.3964 28.0033 54.8797 27.36C54.3631 26.7167 49.9397 26.18 47.2397 28.0767C46.8231 28.3667 46.9064 28.77 47.3531 28.7133C48.8764 28.5333 52.2597 28.1267 52.8664 28.9ZM47.4631 14.6667C47.4621 14.7289 47.4739 14.7907 47.4977 14.8482C47.5214 14.9058 47.5567 14.9578 47.6014 15.0012C47.646 15.0446 47.6991 15.0784 47.7573 15.1006C47.8154 15.1227 47.8775 15.1327 47.9397 15.13H52.2564L47.2964 22.2533C47.0703 22.6356 46.9636 23.0767 46.9897 23.52V25.3867C46.9897 25.66 47.2897 25.9667 47.5797 25.8167C48.929 25.119 50.4258 24.7549 51.9447 24.7549C53.4637 24.7549 54.9605 25.119 56.3097 25.8167C56.6197 25.98 56.9164 25.6667 56.9164 25.3967V23.43C56.9138 23.2821 56.872 23.1375 56.7953 23.0111C56.7185 22.8846 56.6097 22.7807 56.4797 22.71C55.0261 21.9619 53.3986 21.6166 51.7664 21.71L56.0464 15.6C56.4431 15.05 56.6664 14.7033 56.6664 14.44V12.83C56.6673 12.7679 56.6557 12.7062 56.6321 12.6488C56.6086 12.5913 56.5736 12.5392 56.5294 12.4956C56.4852 12.452 56.4326 12.4178 56.3748 12.395C56.317 12.3723 56.2552 12.3615 56.1931 12.3633H47.9297C47.8681 12.362 47.8068 12.3731 47.7496 12.3961C47.6923 12.419 47.6403 12.4534 47.5967 12.497C47.5531 12.5406 47.5188 12.5926 47.4958 12.6498C47.4728 12.707 47.4617 12.7683 47.4631 12.83V14.6667ZM17.3231 26.1867C17.3853 26.1884 17.4474 26.1778 17.5055 26.1554C17.5636 26.133 17.6167 26.0993 17.6617 26.0561C17.7067 26.013 17.7426 25.9614 17.7675 25.9043C17.7923 25.8471 17.8055 25.7856 17.8064 25.7233V18.8833C17.8097 17.39 17.7331 15.3333 19.5464 15.3333C21.3597 15.3333 21.0931 17.45 21.0931 18.8867V25.7267C21.0947 25.8464 21.1423 25.961 21.2261 26.0466C21.3099 26.1323 21.4234 26.1824 21.5431 26.1867H24.0664C24.1286 26.188 24.1904 26.1771 24.2483 26.1545C24.3062 26.1319 24.3592 26.0982 24.4041 26.0551C24.4489 26.0121 24.4849 25.9607 24.5099 25.9037C24.5349 25.8468 24.5484 25.7855 24.5497 25.7233V18.8833C24.5497 18.15 24.5264 17.0667 24.7831 16.4167C24.902 16.112 25.1079 15.849 25.3753 15.6605C25.6426 15.472 25.9595 15.3663 26.2864 15.3567C27.0131 15.3567 27.5764 15.6 27.7631 16.47C27.8831 16.9833 27.8364 18.3433 27.8364 18.8833V25.7267C27.838 25.8464 27.8857 25.961 27.9694 26.0466C28.0532 26.1323 28.1667 26.1824 28.2864 26.1867H30.7964C30.9223 26.1894 31.0441 26.1421 31.1353 26.0553C31.2264 25.9685 31.2796 25.8492 31.2831 25.7233V17.5833C31.2831 16.1967 31.4431 14.62 30.6464 13.5367C30.2396 13.0225 29.7038 12.6252 29.0936 12.3852C28.4834 12.1451 27.8206 12.071 27.1725 12.1702C26.5243 12.2694 25.914 12.5385 25.4036 12.95C24.8932 13.3616 24.5008 13.901 24.2664 14.5133C23.5597 12.8867 22.5764 12.1267 21.0031 12.1267C19.4297 12.1267 18.3031 12.8867 17.6964 14.5133H17.6497V12.8467C17.6399 12.7305 17.5875 12.622 17.5026 12.542C17.4178 12.462 17.3063 12.4162 17.1897 12.4133H14.8564C14.7305 12.4106 14.6087 12.4579 14.5175 12.5447C14.4264 12.6315 14.3732 12.7508 14.3697 12.8767V25.7633C14.3809 25.8764 14.4327 25.9815 14.5154 26.0593C14.5981 26.1372 14.7062 26.1824 14.8197 26.1867H17.3331H17.3231ZM63.7797 12.1233C60.1431 12.1233 58.1131 15.2467 58.1131 19.2667C58.1131 23.2867 60.1131 26.46 63.7797 26.46C67.2997 26.46 69.5297 23.3367 69.5297 19.4C69.5297 15.3333 67.5097 12.1233 63.7797 12.1233ZM63.7797 23.79C61.8097 23.79 61.8331 20.4233 61.8331 18.8467C61.8331 17.27 61.9497 14.7467 63.8031 14.7467C64.6031 14.7467 65.1631 15.1 65.4464 15.9967C65.7372 17.1124 65.8641 18.2644 65.8231 19.4167C65.8231 21.0833 65.7331 23.8 63.7797 23.8V23.79ZM74.3664 26.1867C74.4926 26.1894 74.6148 26.1423 74.7065 26.0555C74.7982 25.9688 74.8521 25.8495 74.8564 25.7233V18.7767C74.8111 17.9429 74.9475 17.1092 75.2564 16.3333C75.3737 16.0399 75.5732 15.7865 75.831 15.6038C76.0889 15.4211 76.394 15.3167 76.7097 15.3033C78.4497 15.3033 78.2831 17.3633 78.2831 18.7767V25.7767C78.2972 25.8873 78.3503 25.9893 78.4327 26.0644C78.5152 26.1395 78.6216 26.1828 78.7331 26.1867H81.2531C81.3688 26.1887 81.4814 26.1486 81.5697 26.0738C81.658 25.9989 81.7161 25.8945 81.7331 25.78V17.6667C81.7331 16.42 81.7331 14.6667 81.0664 13.65C80.7544 13.161 80.3189 12.7629 79.8039 12.496C79.2889 12.2291 78.7125 12.1029 78.1331 12.13C76.3964 12.13 75.4097 12.97 74.7064 14.7333H74.6597V12.7567C74.634 12.6566 74.5766 12.5675 74.4961 12.5026C74.4156 12.4377 74.3164 12.4006 74.2131 12.3967H71.8797C71.7622 12.3957 71.6484 12.438 71.5599 12.5154C71.4714 12.5928 71.4144 12.7 71.3997 12.8167V25.7267C71.4014 25.8464 71.449 25.961 71.5328 26.0466C71.6165 26.1323 71.73 26.1824 71.8497 26.1867H74.3531H74.3664ZM45.3531 23.8233C44.8931 23.1867 44.4031 22.6733 44.4031 21.49V17.58C44.4031 15.9133 44.5197 14.3933 43.2964 13.2467C42.3331 12.3333 40.7331 12 39.5131 12C37.1197 12 34.4497 12.8933 33.8897 15.85C33.8778 15.9093 33.8782 15.9705 33.891 16.0296C33.9038 16.0888 33.9286 16.1447 33.964 16.1938C33.9993 16.2429 34.0444 16.2842 34.0965 16.3151C34.1485 16.346 34.2064 16.3658 34.2664 16.3733L36.7031 16.64C36.8158 16.6204 36.9191 16.5645 36.9973 16.4809C37.0755 16.3973 37.1243 16.2905 37.1364 16.1767C37.3497 15.1567 38.1997 14.6667 39.1597 14.6667C39.4313 14.6544 39.7018 14.7087 39.9475 14.8249C40.1933 14.9411 40.4069 15.1156 40.5697 15.3333C40.9231 15.85 40.8764 16.5567 40.8764 17.1567V17.49C39.4197 17.6533 37.5131 17.76 36.1497 18.36C35.3374 18.688 34.6458 19.258 34.1687 19.9927C33.6916 20.7274 33.4522 21.5912 33.4831 22.4667C33.4831 25.08 35.1297 26.3867 37.2431 26.3867C39.0331 26.3867 40.0097 25.9633 41.3897 24.56C41.7646 25.1983 42.2526 25.7631 42.8297 26.2267C42.9225 26.2792 43.0292 26.3019 43.1353 26.2918C43.2415 26.2816 43.3419 26.2391 43.4231 26.17C43.9231 25.72 44.8364 24.9267 45.3497 24.5033C45.3955 24.4594 45.432 24.4068 45.457 24.3485C45.4821 24.2902 45.4951 24.2275 45.4954 24.164C45.4957 24.1006 45.4833 24.0378 45.4588 23.9792C45.4344 23.9207 45.3984 23.8677 45.3531 23.8233ZM40.8764 20.0267C40.8764 21.0067 40.8997 21.82 40.4064 22.6933C40.2453 23.022 39.9988 23.3012 39.6926 23.5018C39.3865 23.7024 39.032 23.8169 38.6664 23.8333C37.6997 23.8333 37.1364 23.1 37.1364 22.0133C37.1364 19.8733 39.0564 19.4833 40.8764 19.4833V20.0267ZM12.3997 23.8233C11.9397 23.1867 11.4497 22.6733 11.4497 21.49V17.58C11.4497 15.9133 11.5697 14.3933 10.3464 13.2467C9.39973 12.3333 7.78307 12 6.55973 12C4.16973 12 1.49973 12.8933 0.939733 15.85C0.927792 15.9091 0.928118 15.97 0.94069 16.0289C0.953261 16.0879 0.977811 16.1436 1.01282 16.1927C1.04782 16.2418 1.09253 16.2831 1.14418 16.3142C1.19583 16.3453 1.25332 16.3654 1.31307 16.3733L3.74973 16.64C3.86244 16.6195 3.96563 16.5634 4.0442 16.4801C4.12277 16.3967 4.1726 16.2904 4.1864 16.1767C4.39973 15.1567 5.24973 14.6667 6.2064 14.6667C6.47797 14.6544 6.74843 14.7087 6.99419 14.8249C7.23996 14.9411 7.45357 15.1156 7.6164 15.3333C7.96973 15.85 7.92307 16.5567 7.92307 17.1567V17.49C6.4664 17.6533 4.56307 17.76 3.1964 18.36C2.38409 18.688 1.69242 19.258 1.21533 19.9927C0.738247 20.7274 0.498876 21.5912 0.529733 22.4667C0.529733 25.08 2.1764 26.3867 4.29307 26.3867C6.07973 26.3867 7.0564 25.9633 8.4364 24.56C8.81231 25.1976 9.30012 25.7622 9.8764 26.2267C9.96918 26.2792 10.0759 26.3019 10.182 26.2918C10.2881 26.2816 10.3886 26.2391 10.4697 26.17C10.9697 25.72 11.8831 24.9267 12.3964 24.5033C12.4426 24.4597 12.4795 24.4071 12.5048 24.3488C12.5301 24.2905 12.5433 24.2276 12.5436 24.164C12.5439 24.1005 12.5313 24.0375 12.5066 23.9789C12.4818 23.9204 12.4455 23.8674 12.3997 23.8233ZM7.92307 20.0267C7.92307 21.0067 7.9464 21.82 7.45307 22.6933C7.29197 23.022 7.04543 23.3012 6.73929 23.5018C6.43315 23.7024 6.07869 23.8169 5.71307 23.8333C4.74973 23.8333 4.18307 23.1 4.18307 22.0133C4.18307 19.8733 6.1064 19.4833 7.92307 19.4833V20.0267Z" fill="#6D7D93" fill-opacity="0.5"/>
</g>
<defs>
<clipPath id="clip0">
<rect width="82.6667" height="40" fill="white" transform="translate(0.0664062)"/>
</clipPath>
</defs>
</svg>
