<svg width="118" height="24" viewBox="0 0 118 24" fill="none" xmlns="http://www.w3.org/2000/svg">
<path d="M24.3633 0.421875V23H18.1543V12.043L13.6055 17.1895H11.7461L7.19727 12.043V23H0.988281V0.421875H3.17969L12.6758 10.0508L22.1719 0.421875H24.3633ZM37.8105 5.56836C38.9837 5.56836 40.1237 5.78971 41.2305 6.23242C42.3372 6.67513 43.3333 7.29492 44.2188 8.0918C45.1042 8.88867 45.8014 9.84049 46.3105 10.9473C46.8418 12.0319 47.1074 13.2272 47.1074 14.5332C47.1074 15.8392 46.8418 17.0456 46.3105 18.1523C45.8014 19.237 45.1042 20.1777 44.2188 20.9746C43.3333 21.7715 42.3372 22.3913 41.2305 22.834C40.1237 23.2767 38.9837 23.498 37.8105 23.498C36.6374 23.498 35.4974 23.2767 34.3906 22.834C33.2839 22.3913 32.2878 21.7715 31.4023 20.9746C30.5169 20.1777 29.8086 19.237 29.2773 18.1523C28.7682 17.0456 28.5137 15.8392 28.5137 14.5332C28.5137 13.2272 28.7682 12.0319 29.2773 10.9473C29.8086 9.84049 30.5169 8.88867 31.4023 8.0918C32.2878 7.29492 33.2839 6.67513 34.3906 6.23242C35.4974 5.78971 36.6374 5.56836 37.8105 5.56836ZM37.8105 11.0469C37.4121 11.0469 36.9583 11.1354 36.4492 11.3125C35.9622 11.4896 35.5417 11.8327 35.1875 12.3418C34.8333 12.8288 34.6562 13.5592 34.6562 14.5332C34.6562 15.485 34.8333 16.2155 35.1875 16.7246C35.5417 17.2337 35.9622 17.5768 36.4492 17.7539C36.9583 17.931 37.4121 18.0195 37.8105 18.0195C38.2311 18.0195 38.6849 17.931 39.1719 17.7539C39.6589 17.5768 40.0794 17.2337 40.4336 16.7246C40.7878 16.2155 40.9648 15.485 40.9648 14.5332C40.9648 13.5592 40.7878 12.8288 40.4336 12.3418C40.0794 11.8327 39.6589 11.4896 39.1719 11.3125C38.6849 11.1354 38.2311 11.0469 37.8105 11.0469ZM56.3047 6.06641V8.25781C56.8359 7.52734 57.4779 6.89648 58.2305 6.36523C59.0052 5.83398 59.957 5.56836 61.0859 5.56836C62.8125 5.56836 64.2181 6.15495 65.3027 7.32812C66.4095 8.5013 66.9629 10.2389 66.9629 12.541V23H61.252L61.2188 13.4375C61.2188 12.5964 60.9863 12.0098 60.5215 11.6777C60.0566 11.3236 59.5365 11.1465 58.9609 11.1465C58.3411 11.1465 57.821 11.3125 57.4004 11.6445C56.9798 11.9544 56.6146 12.3307 56.3047 12.7734V23H50.5938V6.06641H56.3047ZM79.2812 5.56836C80.875 5.56836 82.2917 5.92253 83.5312 6.63086C84.7708 7.33919 85.7337 8.33529 86.4199 9.61914C87.1283 10.8809 87.4824 12.3861 87.4824 14.1348V16.0938H75.9609C76.2044 16.9128 76.6914 17.5215 77.4219 17.9199C78.1523 18.3184 78.9935 18.5176 79.9453 18.5176C81.2292 18.5176 82.3359 18.3405 83.2656 17.9863C84.2174 17.61 84.9258 17.2891 85.3906 17.0234V21.9043C84.8151 22.2585 84.0182 22.6126 83 22.9668C82.0039 23.321 80.875 23.498 79.6133 23.498C78.418 23.498 77.2559 23.2988 76.127 22.9004C75.0202 22.502 74.0241 21.9264 73.1387 21.1738C72.2533 20.4212 71.556 19.5137 71.0469 18.4512C70.5378 17.3665 70.2832 16.1491 70.2832 14.7988C70.2832 13.1165 70.6706 11.5781 71.4453 10.1836C72.2422 8.78906 73.3158 7.67122 74.666 6.83008C76.0384 5.98893 77.5768 5.56836 79.2812 5.56836ZM79.1152 10.2832C78.3848 10.2832 77.7539 10.4824 77.2227 10.8809C76.6914 11.2572 76.304 11.8438 76.0605 12.6406H82.0703C82.0703 11.8438 81.7604 11.2572 81.1406 10.8809C80.543 10.4824 79.8678 10.2832 79.1152 10.2832ZM97.1113 5.56836C97.9967 5.56836 98.86 5.76758 99.7012 6.16602C100.564 6.54232 101.273 7.0293 101.826 7.62695V6.06641H107.537V23H101.826V20.1777C101.406 21.1074 100.764 21.8932 99.9004 22.5352C99.0371 23.1771 97.9967 23.498 96.7793 23.498C95.5176 23.498 94.3333 23.1771 93.2266 22.5352C92.1198 21.8932 91.2122 20.9082 90.5039 19.5801C89.8177 18.2298 89.4746 16.5365 89.4746 14.5C89.4746 12.5964 89.8177 10.9805 90.5039 9.65234C91.2122 8.32422 92.1419 7.31706 93.293 6.63086C94.4661 5.92253 95.7389 5.56836 97.1113 5.56836ZM98.3066 11.1465C97.4876 11.1465 96.8014 11.4785 96.248 12.1426C95.7168 12.8066 95.4512 13.5924 95.4512 14.5C95.4512 15.4076 95.7279 16.1712 96.2812 16.791C96.8346 17.4108 97.5651 17.7207 98.4727 17.7207C98.9596 17.7207 99.4577 17.599 99.9668 17.3555C100.476 17.0898 100.908 16.7025 101.262 16.1934C101.638 15.6621 101.826 14.987 101.826 14.168V12.541C101.339 12.1426 100.786 11.8105 100.166 11.5449C99.5684 11.2793 98.9486 11.1465 98.3066 11.1465ZM114.045 17.6543C114.864 17.6543 115.561 17.9421 116.137 18.5176C116.734 19.0931 117.033 19.8014 117.033 20.6426C117.033 21.4616 116.734 22.1699 116.137 22.7676C115.561 23.3431 114.864 23.6309 114.045 23.6309C113.226 23.6309 112.518 23.3431 111.92 22.7676C111.344 22.1699 111.057 21.4616 111.057 20.6426C111.057 19.8014 111.344 19.0931 111.92 18.5176C112.518 17.9421 113.226 17.6543 114.045 17.6543Z" fill="black"/>
</svg>
