<svg width="105" height="30" viewBox="0 0 105 30" fill="none" xmlns="http://www.w3.org/2000/svg">
<path fill-rule="evenodd" clip-rule="evenodd" d="M36.1641 16.6172C35.2734 16.125 34.8047 15.7266 34.8047 15.1641C34.8047 14.4375 35.4375 13.9922 36.4453 13.9922C37.6172 13.9922 38.6484 14.4844 38.6484 14.4844L39.4688 11.9766C39.4688 11.9766 38.7188 11.3906 36.4922 11.3906C33.3984 11.3906 31.2422 13.1719 31.2422 15.6563C31.2422 17.0625 32.25 18.1406 33.5859 18.9141C34.6641 19.5234 35.0391 19.9688 35.0391 20.6016C35.0391 21.2813 34.5 21.8203 33.4922 21.8203C31.9922 21.8203 30.5859 21.0469 30.5859 21.0469L29.7188 23.5547C29.7188 23.5547 31.0312 24.4219 33.2109 24.4219C36.3984 24.4219 38.6719 22.8516 38.6719 20.0391C38.7188 18.4922 37.5469 17.4141 36.1641 16.6172ZM48.8672 11.3438C47.2969 11.3438 46.0781 12.0938 45.1172 13.2188L45.0703 13.1953L46.4297 6.07031H42.8906L39.4453 24.1875H42.9844L44.1563 18C44.625 15.6563 45.8203 14.2266 46.9453 14.2266C47.7422 14.2266 48.0469 14.7656 48.0469 15.5391C48.0469 16.0313 48 16.6172 47.8828 17.1094L46.5469 24.2109H50.0859L51.4688 16.8984C51.6328 16.125 51.7266 15.2109 51.7266 14.5781C51.75 12.5391 50.6953 11.3438 48.8672 11.3438ZM59.7656 11.3438C55.5 11.3438 52.6641 15.1875 52.6641 19.4766C52.6641 22.2188 54.3516 24.4453 57.5391 24.4453C61.7344 24.4453 64.5469 20.6953 64.5469 16.3125C64.5703 13.7578 63.0938 11.3438 59.7656 11.3438ZM58.0313 21.7031C56.8125 21.7031 56.3203 20.6719 56.3203 19.3828C56.3203 17.3438 57.375 14.0391 59.2969 14.0391C60.5625 14.0391 60.9609 15.1172 60.9609 16.1719C60.9609 18.375 59.9063 21.7031 58.0313 21.7031ZM73.6406 11.3438C71.25 11.3438 69.8906 13.4531 69.8906 13.4531H69.8438L70.0547 11.5547H66.9141C66.75 12.8438 66.4688 14.7891 66.1875 16.2656L63.7266 29.25H67.2656L68.25 24H68.3203C68.3203 24 69.0469 24.4688 70.4063 24.4688C74.5781 24.4688 77.2969 20.2031 77.2969 15.8906C77.2969 13.4766 76.2422 11.3438 73.6406 11.3438ZM70.2656 21.7734C69.3516 21.7734 68.8125 21.2578 68.8125 21.2578L69.3984 17.9531C69.8203 15.75 70.9688 14.2734 72.1875 14.2734C73.2656 14.2734 73.5938 15.2812 73.5938 16.2188C73.5938 18.4922 72.2344 21.7734 70.2656 21.7734ZM82.3594 6.23438C81.2344 6.23438 80.3203 7.125 80.3203 8.29688C80.3203 9.35156 80.9766 10.0781 81.9844 10.0781H82.0313C83.1328 10.0781 84.0938 9.32813 84.1172 8.01563C84.1406 6.98438 83.4375 6.23438 82.3594 6.23438Z" fill="#6D7D93" fill-opacity="0.5"/>
<path fill-rule="evenodd" clip-rule="evenodd" d="M77.3906 24.1875H80.9531L83.3672 11.625H79.7812L77.3906 24.1875Z" fill="#6D7D93" fill-opacity="0.5"/>
<path fill-rule="evenodd" clip-rule="evenodd" d="M92.3672 11.5781H89.9062L90.0234 10.9922C90.2344 9.77344 90.9375 8.69531 92.1328 8.69531C92.7656 8.69531 93.2578 8.88281 93.2578 8.88281L93.9609 6.11719C93.9609 6.11719 93.3516 5.8125 92.0391 5.8125C90.7734 5.8125 89.5312 6.16406 88.5703 6.98438C87.3516 8.01562 86.7891 9.49219 86.5078 10.9922L86.4141 11.5781H84.7734L84.2578 14.25H85.8984L84.0234 24.1641H87.5625L89.4375 14.25H91.875L92.3672 11.5781ZM100.898 11.625C100.898 11.625 98.6719 17.2031 97.6875 20.25H97.6406C97.5703 19.2656 96.7734 11.625 96.7734 11.625H93.0469L95.1797 23.1562C95.2266 23.4141 95.2031 23.5781 95.1094 23.7422C94.6875 24.5391 94.0078 25.3125 93.1875 25.875C92.5312 26.3672 91.7812 26.6719 91.1953 26.8828L92.1797 29.8828C92.9062 29.7188 94.3828 29.1328 95.6484 27.9609C97.2656 26.4375 98.7656 24.1172 100.289 20.9297L104.625 11.625H100.898ZM16.875 29.1328L25.6406 27.2344C25.6406 27.2344 22.4766 5.83594 22.4531 5.69531C22.4297 5.55469 22.3125 5.46094 22.1953 5.46094C22.0781 5.46094 19.8516 5.29688 19.8516 5.29688C19.8516 5.29688 18.3047 3.75 18.1172 3.58594C18.0703 3.53906 18.0234 3.51562 17.9766 3.49219L16.875 29.1328ZM17.6016 3.44531C17.5781 3.44531 17.5312 3.46875 17.5078 3.46875C17.4844 3.46875 17.1562 3.5625 16.6406 3.72656C16.125 2.22656 15.2109 0.84375 13.5938 0.84375H13.4531C12.9844 0.257812 12.4219 0 11.9297 0C8.15625 0 6.35156 4.71094 5.78906 7.10156C4.33594 7.54688 3.28125 7.875 3.16406 7.92188C2.34375 8.17969 2.32031 8.20312 2.22656 8.97656C2.13281 9.53906 0 26.0625 0 26.0625L16.4766 29.1562L17.6016 3.44531ZM13.3125 4.59375V4.75781C12.3984 5.03906 11.3906 5.34375 10.4062 5.64844C10.9688 3.49219 12.0234 2.4375 12.9375 2.03906C13.1719 2.64844 13.3125 3.46875 13.3125 4.59375ZM11.8125 1.00781C11.9766 1.00781 12.1406 1.05469 12.3047 1.17188C11.1094 1.73438 9.79688 3.16406 9.25781 6.02344C8.46094 6.28125 7.6875 6.51562 6.96094 6.72656C7.59375 4.54688 9.11719 1.00781 11.8125 1.00781ZM12.4688 13.7344C12.4688 13.7344 11.4844 13.2188 10.3125 13.2188C8.55469 13.2188 8.48438 14.3203 8.48438 14.6016C8.48438 16.1016 12.4219 16.6875 12.4219 20.2266C12.4219 23.0156 10.6641 24.7969 8.27344 24.7969C5.41406 24.7969 3.96094 23.0156 3.96094 23.0156L4.73438 20.4844C4.73438 20.4844 6.23438 21.7734 7.5 21.7734C8.32031 21.7734 8.67188 21.1172 8.67188 20.6484C8.67188 18.6797 5.4375 18.5859 5.4375 15.3516C5.4375 12.6328 7.38281 9.98438 11.3438 9.98438C12.8672 9.98438 13.6172 10.4297 13.6172 10.4297L12.4688 13.7344ZM13.9688 1.875C14.8125 1.96875 15.3516 2.92969 15.7031 4.00781C15.2812 4.14844 14.8125 4.28906 14.2969 4.45312V4.14844C14.2969 3.23438 14.1797 2.48438 13.9688 1.875Z" fill="#6D7D93" fill-opacity="0.5"/>
</svg>
