<svg width="95" height="24" viewBox="0 0 95 24" fill="none" xmlns="http://www.w3.org/2000/svg">
<path fill-rule="evenodd" clip-rule="evenodd" d="M30.9695 18.841L32.144 16.1161C33.412 17.0591 35.0962 17.5539 36.7656 17.5539C37.9911 17.5539 38.7685 17.0824 38.7685 16.3603C38.7493 14.3532 31.4049 15.9228 31.3476 10.8913C31.3285 8.332 33.601 6.36527 36.8166 6.36527C38.7302 6.36527 40.646 6.83678 42.0031 7.91572L40.9093 10.698C39.6605 9.90156 38.1079 9.33023 36.6276 9.33023C35.6293 9.33023 34.9646 9.80811 34.9646 10.4155C34.9837 12.3823 42.3854 11.3076 42.4619 16.1161C42.4619 18.7285 40.2446 20.5614 37.0672 20.5614C34.7373 20.5614 32.5964 20.0155 30.9716 18.841H30.9695ZM76.0173 15.1306C75.649 15.7814 75.0757 16.292 74.3867 16.5826C73.6977 16.8733 72.9319 16.9276 72.2088 16.7372C71.4856 16.5468 70.8459 16.1224 70.3894 15.5301C69.9329 14.9378 69.6853 14.2111 69.6853 13.4633C69.6853 12.7156 69.9329 11.9888 70.3894 11.3966C70.8459 10.8043 71.4856 10.3798 72.2088 10.1894C72.9319 9.99902 73.6977 10.0534 74.3867 10.344C75.0757 10.6347 75.649 11.1453 76.0173 11.7961L79.2562 9.99501C78.489 8.62183 77.2879 7.54199 75.8411 6.92472C74.3943 6.30744 72.7836 6.18762 71.2614 6.58401C69.7392 6.98041 68.3916 7.87063 67.4296 9.11517C66.4677 10.3597 65.9458 11.8882 65.9458 13.4612C65.9458 15.0342 66.4677 16.5627 67.4296 17.8072C68.3916 19.0518 69.7392 19.942 71.2614 20.3384C72.7836 20.7348 74.3943 20.615 75.8411 19.9977C77.2879 19.3804 78.489 18.3006 79.2562 16.9274L76.0173 15.1306ZM44.0867 0.471468H48.1433V20.298H44.0867V0.471468ZM80.8449 0.471468V20.298H84.9016V14.3575L89.71 20.298H94.8966L88.7798 13.2361L94.44 6.64775H89.4785L84.8952 12.1168V0.471468H80.8449ZM60.1837 15.1688C59.8399 15.6909 59.3707 16.1185 58.8189 16.4123C58.2672 16.7062 57.6505 16.857 57.0254 16.8509C56.127 16.8509 55.2653 16.494 54.63 15.8587C53.9947 15.2234 53.6378 14.3618 53.6378 13.4633C53.6378 12.5649 53.9947 11.7032 54.63 11.0679C55.2653 10.4326 56.127 10.0757 57.0254 10.0757C58.389 10.0757 59.5996 10.8297 60.1837 11.8173V15.1688ZM60.1837 6.64775V8.25554C59.5253 7.13837 57.875 6.36103 56.1525 6.36103C52.5929 6.36103 49.7872 9.50439 49.7872 13.4421C49.7872 17.384 52.5929 20.5614 56.1525 20.5614C57.8729 20.5614 59.5253 19.7883 60.1837 18.6711V20.2747H64.2403V6.64775H60.1837ZM5.91394 15.1497C5.91394 15.6442 5.76727 16.1276 5.4925 16.5387C5.21772 16.9499 4.82717 17.2703 4.37027 17.4594C3.91336 17.6486 3.41062 17.698 2.92564 17.6013C2.44067 17.5047 1.99525 17.2664 1.64572 16.9166C1.2962 16.5668 1.05828 16.1211 0.962068 15.6361C0.865852 15.151 0.91566 14.6483 1.10519 14.1916C1.29472 13.7348 1.61546 13.3446 2.02683 13.0701C2.43821 12.7957 2.92173 12.6495 3.41624 12.6499H5.91394V15.1497ZM7.16491 15.1497C7.15517 14.8154 7.21259 14.4826 7.33378 14.1709C7.45497 13.8592 7.63746 13.575 7.87046 13.3351C8.10345 13.0953 8.38221 12.9046 8.69023 12.7743C8.99825 12.6441 9.32926 12.577 9.66367 12.577C9.99809 12.577 10.3291 12.6441 10.6371 12.7743C10.9451 12.9046 11.2239 13.0953 11.4569 13.3351C11.6899 13.575 11.8724 13.8592 11.9936 14.1709C12.1148 14.4826 12.1722 14.8154 12.1624 15.1497V21.3961C12.1435 22.0462 11.8719 22.6633 11.4054 23.1164C10.9388 23.5696 10.3141 23.823 9.66367 23.823C9.0133 23.823 8.38852 23.5696 7.92198 23.1164C7.45544 22.6633 7.18387 22.0462 7.16491 21.3961V15.1497ZM9.66474 5.11005C9.17032 5.10963 8.68713 4.96261 8.27627 4.68758C7.86541 4.41254 7.54533 4.02185 7.35651 3.56491C7.1677 3.10796 7.11862 2.60529 7.21549 2.12046C7.31235 1.63562 7.55082 1.1904 7.90072 0.841087C8.25063 0.491778 8.69625 0.254072 9.18125 0.158027C9.66625 0.0619832 10.1688 0.111915 10.6255 0.301509C11.0821 0.491102 11.4722 0.811842 11.7466 1.22317C12.0209 1.6345 12.1671 2.11794 12.1667 2.61235V5.11005H9.66686H9.66474ZM9.66474 6.38439C9.99901 6.37464 10.3318 6.43206 10.6435 6.55325C10.9552 6.67444 11.2394 6.85694 11.4793 7.08993C11.7192 7.32293 11.9099 7.60169 12.0401 7.9097C12.1703 8.21772 12.2374 8.54874 12.2374 8.88315C12.2374 9.21756 12.1703 9.54858 12.0401 9.8566C11.9099 10.1646 11.7192 10.4434 11.4793 10.6764C11.2394 10.9094 10.9552 11.0919 10.6435 11.213C10.3318 11.3342 9.99901 11.3917 9.66474 11.3819H3.39925C3.06498 11.3917 2.73215 11.3342 2.42047 11.213C2.10878 11.0919 1.82459 10.9094 1.5847 10.6764C1.34481 10.4434 1.15411 10.1646 1.02389 9.8566C0.893666 9.54858 0.826569 9.21756 0.826569 8.88315C0.826569 8.54874 0.893666 8.21772 1.02389 7.9097C1.15411 7.60169 1.34481 7.32293 1.5847 7.08993C1.82459 6.85694 2.10878 6.67444 2.42047 6.55325C2.73215 6.43206 3.06498 6.37464 3.39925 6.38439H9.66474ZM19.681 8.88209C19.681 8.38758 19.8277 7.90418 20.1025 7.49304C20.3772 7.0819 20.7678 6.76149 21.2247 6.57235C21.6816 6.38321 22.1843 6.33383 22.6693 6.43045C23.1543 6.52708 23.5997 6.76538 23.9492 7.1152C24.2988 7.46502 24.5367 7.91064 24.6329 8.3957C24.7291 8.88076 24.6793 9.38345 24.4898 9.8402C24.3002 10.2969 23.9795 10.6872 23.5681 10.9616C23.1567 11.2361 22.6732 11.3823 22.1787 11.3819H19.6831V8.88209H19.681ZM18.43 8.88209C18.4398 9.21636 18.3824 9.54919 18.2612 9.86087C18.14 10.1726 17.9575 10.4567 17.7245 10.6966C17.4915 10.9365 17.2127 11.1272 16.9047 11.2574C16.5967 11.3877 16.2657 11.4548 15.9313 11.4548C15.5969 11.4548 15.2659 11.3877 14.9578 11.2574C14.6498 11.1272 14.3711 10.9365 14.1381 10.6966C13.9051 10.4567 13.7226 10.1726 13.6014 9.86087C13.4802 9.54919 13.4228 9.21636 13.4325 8.88209V2.61235C13.4228 2.27808 13.4802 1.94525 13.6014 1.63357C13.7226 1.32189 13.9051 1.03769 14.1381 0.797804C14.3711 0.557916 14.6498 0.367216 14.9578 0.236993C15.2659 0.10677 15.5969 0.0396729 15.9313 0.0396729C16.2657 0.0396729 16.5967 0.10677 16.9047 0.236993C17.2127 0.367216 17.4915 0.557916 17.7245 0.797804C17.9575 1.03769 18.14 1.32189 18.2612 1.63357C18.3824 1.94525 18.4398 2.27808 18.43 2.61235V8.88209ZM15.9345 18.8984C16.429 18.8984 16.9124 19.045 17.3235 19.3198C17.7347 19.5946 18.0551 19.9851 18.2442 20.442C18.4333 20.899 18.4827 21.4017 18.3861 21.8867C18.2895 22.3716 18.0512 22.8171 17.7014 23.1666C17.3515 23.5161 16.9059 23.754 16.4209 23.8502C15.9358 23.9465 15.4331 23.8967 14.9764 23.7071C14.5196 23.5176 14.1293 23.1968 13.8549 22.7855C13.5805 22.3741 13.4342 21.8906 13.4346 21.3961V18.8984H15.9345ZM15.9345 17.6474C15.6002 17.6571 15.2674 17.5997 14.9557 17.4785C14.644 17.3573 14.3598 17.1748 14.1199 16.9419C13.88 16.7089 13.6893 16.4301 13.5591 16.1221C13.4289 15.8141 13.3618 15.483 13.3618 15.1486C13.3618 14.8142 13.4289 14.4832 13.5591 14.1752C13.6893 13.8672 13.88 13.5884 14.1199 13.3554C14.3598 13.1224 14.644 12.9399 14.9557 12.8187C15.2674 12.6975 15.6002 12.6401 15.9345 12.6499H22.2042C22.8543 12.6688 23.4714 12.9404 23.9246 13.4069C24.3777 13.8735 24.6312 14.4983 24.6312 15.1486C24.6312 15.799 24.3777 16.4238 23.9246 16.8903C23.4714 17.3569 22.8543 17.6284 22.2042 17.6474H15.9345Z" fill="#6D7D93" fill-opacity="0.5"/>
</svg>
