<svg width="112" height="32" viewBox="0 0 112 32" fill="none" xmlns="http://www.w3.org/2000/svg">
<path d="M46.9213 5.82C45.2213 5.82 43.9013 6.26 42.9813 7.14C42.0613 8 41.6013 9.1 41.6013 10.4C41.6013 11.78 42.0613 12.78 43.0813 13.44C43.6013 13.76 44.1013 14.02 44.6013 14.2C45.1013 14.38 45.7413 14.56 46.5413 14.76C48.7613 15.32 49.6213 15.76 49.6213 16.82C49.6213 17.96 48.8413 18.54 47.2613 18.54C45.6413 18.54 44.4613 17.62 44.4013 16.26L41.2613 16.42C41.2813 17.94 41.8413 19.12 42.9413 19.96C44.0413 20.8 45.4813 21.22 47.2613 21.22C48.8613 21.22 50.1813 20.84 51.2013 20.06C52.2413 19.28 52.7613 18.14 52.7613 16.64C52.7613 15.4 52.3413 14.46 51.5013 13.84C50.6813 13.22 49.4013 12.68 47.6813 12.24C46.5613 11.98 45.8013 11.72 45.3813 11.48C44.9613 11.22 44.7613 10.84 44.7613 10.3C44.7613 9.2 45.6013 8.5 46.9813 8.5C48.4013 8.5 49.2813 9.3 49.3013 10.58L52.4613 10.42C52.4213 9 51.9013 7.88 50.8813 7.06C49.8813 6.24 48.5613 5.82 46.9213 5.82ZM59.7174 10.46C58.2574 10.46 57.0574 10.96 56.1174 11.94C55.1974 12.92 54.7374 14.22 54.7374 15.84C54.7374 17.46 55.1974 18.76 56.1174 19.74C57.0574 20.72 58.2574 21.22 59.7174 21.22C61.0174 21.22 61.9774 20.86 62.6374 20.12V26.1H65.5374V10.66H62.7974V11.74C62.1574 10.88 61.1374 10.46 59.7174 10.46ZM60.1974 12.96C61.6574 12.96 62.6374 13.98 62.6374 15.6V16.08C62.6374 17.7 61.6574 18.72 60.1974 18.72C58.6974 18.72 57.6974 17.66 57.6974 15.84C57.6974 14.02 58.6974 12.96 60.1974 12.96ZM77.602 10.66H74.682V16.5C74.682 17.7 74.022 18.5 72.922 18.5C71.822 18.5 71.262 17.84 71.262 16.54V10.66H68.342V17.16C68.342 19.7 69.782 21.22 72.162 21.22C73.422 21.22 74.322 20.8 74.842 19.96V21H77.602V10.66ZM84.5132 10.46C83.2532 10.46 82.2132 10.84 81.3932 11.6C80.5932 12.34 80.1932 13.2 80.1932 14.16L83.1132 14.28C83.1132 13.54 83.6132 12.92 84.5532 12.92C85.4532 12.92 85.8932 13.46 85.8932 14.52V14.92L84.0532 15.02C81.2932 15.14 79.9132 16.18 79.9132 18.16C79.9132 20.14 81.2132 21.22 83.3532 21.22C84.4332 21.22 85.3132 20.86 85.9932 20.16V21H88.8132V14.62C88.8132 11.9 87.3132 10.46 84.5132 10.46ZM85.8932 17.28C85.8932 18.34 85.1332 18.96 84.0332 18.96C83.2332 18.96 82.8332 18.64 82.8332 18.02C82.8332 17.34 83.3332 16.98 84.3332 16.94L85.8932 16.84V17.28ZM97.266 10.56C95.926 10.56 94.966 10.98 94.426 11.84V10.66H91.606V21H94.526V15.76C94.526 14.32 95.586 13.38 97.266 13.38V10.56ZM108.766 15.6C108.766 14 108.326 12.74 107.426 11.84C106.526 10.92 105.326 10.46 103.826 10.46C102.266 10.46 101.006 10.94 100.026 11.92C99.0455 12.88 98.5655 14.18 98.5655 15.84C98.5655 17.48 99.0455 18.78 100.026 19.76C101.006 20.74 102.306 21.22 103.906 21.22C105.126 21.22 106.166 20.9 107.046 20.28C107.946 19.66 108.486 18.84 108.666 17.86L105.726 17.72C105.506 18.48 104.866 18.86 103.826 18.86C102.526 18.86 101.726 18.06 101.666 16.76H108.766V15.6ZM103.806 12.74C105.086 12.74 105.766 13.52 105.826 14.82H101.666C101.746 13.52 102.546 12.74 103.806 12.74Z" fill="#44444F"/>
<rect x="2" y="2" width="24" height="24" rx="8" stroke="#333333" stroke-width="4"/>
<rect x="13" y="4" width="12" height="12" rx="6" stroke="#333333" stroke-width="4"/>
</svg>
